<?xml version="1.0" encoding="UTF-8"?>
<svg width="24px" height="24px" viewBox="0 0 24 24" version="1.1" xmlns="http://www.w3.org/2000/svg" xmlns:xlink="http://www.w3.org/1999/xlink">
    <!-- Generator: Sketch 64 (93537) - https://sketch.com -->
    <title>bell-icon</title>
    <desc>Created with Sketch.</desc>
    <g id="UI-style-guide" stroke="none" stroke-width="1" fill="none" fill-rule="evenodd">
        <g id="UI-Style-Guide-Copy" transform="translate(-152.000000, -3996.000000)" fill="#5F6C7B" fill-rule="nonzero">
            <g id="Bell-icon" transform="translate(152.000000, 3996.000000)">
                <g id="bell-icon">
                    <g>
                        <path d="M12,3.31347656 C13.2304688,3.31347656 14.1357422,4.16601562 14.4257812,5.25585938 C16.6230469,6.046875 17.4931641,8.15625 17.5722656,11.3818359 C17.6513672,12.4101562 17.8007812,13.5791016 18.3632812,14.1591797 C19.0927734,14.8886719 19.9277344,15.6445312 19.9277344,16.4970703 C19.9277344,17.1386719 19.4355469,17.5605469 18.6181641,17.5605469 L18.6181641,17.5605469 L15.1464844,17.5605469 C15.0761719,19.1601562 13.8017578,20.5751953 12,20.5751953 C10.1894531,20.5751953 8.92382812,19.1513672 8.85351562,17.5605469 L8.85351562,17.5605469 L5.37304688,17.5605469 C4.56445312,17.5605469 4.07226562,17.1386719 4.07226562,16.4970703 C4.07226562,15.6445312 4.90722656,14.8886719 5.63671875,14.1591797 C6.19921875,13.5791016 6.34863281,12.4101562 6.42773438,11.3818359 C6.50683594,8.15625 7.37695312,6.046875 9.57421875,5.25585938 C9.86425781,4.16601562 10.7695312,3.31347656 12,3.31347656 Z M13.7490234,17.5605469 L10.2509766,17.5605469 C10.3125,18.6591797 11.015625,19.3535156 12,19.3535156 C12.984375,19.3535156 13.6875,18.6503906 13.7490234,17.5605469 L13.7490234,17.5605469 Z M12,4.64941406 C11.2441406,4.64941406 10.7607422,5.23828125 10.7255859,6.09960938 C10.7167969,6.31054688 10.6025391,6.41601562 10.3916016,6.46875 C8.99414062,6.84667969 7.93945312,7.98925781 7.8515625,11.5224609 C7.78125,13.1308594 7.5,14.2470703 6.91992188,14.9150391 C6.48925781,15.3984375 5.99707031,15.8642578 5.82128906,16.1103516 L5.82128906,16.1103516 L5.82128906,16.2070312 L18.1699219,16.2070312 L18.1699219,16.1103516 C17.9941406,15.8642578 17.5107422,15.3984375 17.0800781,14.9150391 C16.5,14.2470703 16.21875,13.1308594 16.1396484,11.5224609 C16.0605469,7.98925781 14.9970703,6.84667969 13.6083984,6.46875 C13.3974609,6.41601562 13.2832031,6.31054688 13.2744141,6.09960938 C13.2392578,5.23828125 12.7558594,4.64941406 12,4.64941406 Z"></path>
                    </g>
                </g>
            </g>
        </g>
    </g>
</svg>