<?xml version="1.0" encoding="UTF-8"?>
<svg width="48px" height="48px" viewBox="0 0 48 48" version="1.1" xmlns="http://www.w3.org/2000/svg" xmlns:xlink="http://www.w3.org/1999/xlink">
    <!-- Generator: Sketch 64 (93537) - https://sketch.com -->
    <title>big-arrow-icon</title>
    <desc>Created with Sketch.</desc>
    <g id="UI-style-guide" stroke="none" stroke-width="1" fill="none" fill-rule="evenodd">
        <g id="UI-Style-Guide-Copy" transform="translate(-1068.000000, -3861.000000)" fill="#5F6C7B" fill-rule="nonzero">
            <g id="big-arrow-icon" transform="translate(1068.000000, 3861.000000)">
                <path d="M26.3496094,36.6474609 C26.7480469,36.6474609 27.0966797,36.4980469 27.4453125,36.1826172 L37.8544922,25.7900391 C38.1865234,25.4746094 38.3525391,25.0761719 38.3525391,24.6611328 C38.3525391,24.2294922 38.1865234,23.8310547 37.8544922,23.515625 L27.4785156,13.15625 C27.1132812,12.8076172 26.7480469,12.6582031 26.3496094,12.6582031 C25.5029297,12.6582031 24.8554688,13.2724609 24.8554688,14.1191406 C24.8554688,14.5341797 25.0048828,14.9160156 25.2871094,15.1816406 L28.8066406,18.7675781 L33.8369141,23.3662109 L30.1015625,23.1337891 L10.5117188,23.1337891 C9.63183594,23.1337891 9.00097656,23.7646484 9.00097656,24.6611328 C9.00097656,25.5410156 9.63183594,26.171875 10.5117188,26.171875 L30.1015625,26.171875 L33.8535156,25.9394531 L28.8066406,30.5380859 L25.2871094,34.1240234 C25.0214844,34.3896484 24.8554688,34.7714844 24.8554688,35.1865234 C24.8554688,36.0332031 25.5029297,36.6474609 26.3496094,36.6474609 Z"></path>
            </g>
        </g>
    </g>
</svg>