<?xml version="1.0" encoding="UTF-8"?>
<svg width="32px" height="32px" viewBox="0 0 32 32" version="1.1" xmlns="http://www.w3.org/2000/svg" xmlns:xlink="http://www.w3.org/1999/xlink">
    <!-- Generator: Sketch 64 (93537) - https://sketch.com -->
    <title>carousel-right-icon</title>
    <desc>Created with Sketch.</desc>
    <g id="UI-style-guide" stroke="none" stroke-width="1" fill="none" fill-rule="evenodd">
        <g id="UI-Style-Guide-Copy" transform="translate(-950.000000, -3996.000000)" fill="#5F6C7B" fill-rule="nonzero">
            <g id="right-carousel-icon" transform="translate(950.000000, 3996.000000)">
                <path d="M14.3769531,26.8984375 C14.8222656,26.8984375 15.2207031,26.6171875 15.3964844,26.1601562 L18.3964844,18.625 C18.6074219,18.0859375 18.8535156,17.4765625 18.8535156,16.9726562 C18.8535156,16.4570312 18.6074219,15.8359375 18.3964844,15.3085938 L15.3964844,7.7734375 C15.2207031,7.328125 14.8222656,7.03515625 14.3769531,7.03515625 C13.6738281,7.03515625 13.1464844,7.55078125 13.1464844,8.23046875 C13.1464844,8.58203125 13.3457031,9.0625 13.4746094,9.37890625 L16.4863281,16.9726562 L13.4746094,24.5546875 C13.3457031,24.8828125 13.1464844,25.3398438 13.1464844,25.703125 C13.1464844,26.3828125 13.6738281,26.8984375 14.3769531,26.8984375 Z"></path>
            </g>
        </g>
    </g>
</svg>