<?xml version="1.0" encoding="UTF-8"?>
<svg width="29px" height="24px" viewBox="0 0 29 24" version="1.1" xmlns="http://www.w3.org/2000/svg" xmlns:xlink="http://www.w3.org/1999/xlink">
    <!-- Generator: Sketch 64 (93537) - https://sketch.com -->
    <title>content-writing-icon</title>
    <desc>Created with Sketch.</desc>
    <g id="UI-style-guide" stroke="none" stroke-width="1" fill="none" fill-rule="evenodd">
        <g id="UI-Style-Guide-Copy" transform="translate(-630.000000, -3930.000000)" fill="#3DA9FC" fill-rule="nonzero">
            <g id="content-writing" transform="translate(630.000000, 3930.000000)">
                <g id="Path">
                    <g transform="translate(3.968750, 5.123858)">
                        <path d="M21.4765625,1.85270413 L22.0390625,1.27457913 C22.3125,0.99332913 22.3203125,0.61832913 22.046875,0.34489163 L21.8671875,0.16520413 C21.625,-0.0769833696 21.234375,-0.0457333696 20.9765625,0.21207913 L20.40625,0.76676663 L21.4765625,1.85270413 Z"></path>
                        <path d="M13.03125,9.43864163 L14.5546875,8.76676663 L20.9296875,2.39176663 L19.8515625,1.32926663 L13.484375,7.70426663 L12.7734375,9.18082913 C12.7109375,9.32926663 12.875,9.50895413 13.03125,9.43864163 Z"></path>
                        <path d="M17.0078125,14.3683291 C18.3984375,14.3683291 19.171875,13.6261416 19.171875,12.2355166 L19.171875,6.01676663 L17.8828125,7.30582913 L17.8828125,12.2277041 C17.8828125,12.8292666 17.5390625,13.1730166 16.9375,13.1730166 L2.234375,13.1730166 C1.6328125,13.1730166 1.296875,12.8292666 1.296875,12.2277041 L1.296875,6.03239163 C1.296875,5.43082913 1.6328125,5.09489163 2.234375,5.09489163 L14.2265625,5.09489163 L15.4296875,3.89176663 L2.171875,3.89176663 C0.7734375,3.89176663 0,4.63395413 0,6.03239163 L0,12.2355166 C0,13.6261416 0.7734375,14.3683291 2.171875,14.3683291 L17.0078125,14.3683291 Z"></path>
                        <path d="M4.140625,10.1105166 C4.6796875,10.1105166 5.125,9.66520413 5.125,9.13395413 C5.125,8.59489163 4.6796875,8.15739163 4.140625,8.15739163 C3.6015625,8.15739163 3.1640625,8.59489163 3.1640625,9.13395413 C3.1640625,9.66520413 3.6015625,10.1105166 4.140625,10.1105166 Z"></path>
                        <path d="M7.140625,10.1105166 C7.6875,10.1105166 8.125,9.66520413 8.125,9.13395413 C8.125,8.59489163 7.6875,8.15739163 7.140625,8.15739163 C6.59375,8.15739163 6.1640625,8.59489163 6.1640625,9.13395413 C6.1640625,9.66520413 6.6015625,10.1105166 7.140625,10.1105166 Z"></path>
                        <path d="M10.140625,10.1105166 C10.6796875,10.1105166 11.1171875,9.66520413 11.1171875,9.13395413 C11.1171875,8.59489163 10.6796875,8.15739163 10.140625,8.15739163 C9.6015625,8.15739163 9.1640625,8.59489163 9.1640625,9.13395413 C9.1640625,9.66520413 9.609375,10.1105166 10.140625,10.1105166 Z"></path>
                    </g>
                </g>
            </g>
        </g>
    </g>
</svg>