<?xml version="1.0" encoding="UTF-8"?>
<svg width="28px" height="24px" viewBox="0 0 28 24" version="1.1" xmlns="http://www.w3.org/2000/svg" xmlns:xlink="http://www.w3.org/1999/xlink">
    <!-- Generator: Sketch 64 (93537) - https://sketch.com -->
    <title>data-entry-icon</title>
    <desc>Created with Sketch.</desc>
    <g id="UI-style-guide" stroke="none" stroke-width="1" fill="none" fill-rule="evenodd">
        <g id="UI-Style-Guide-Copy" transform="translate(-630.000000, -3864.000000)" fill="#3DA9FC" fill-rule="nonzero">
            <g id="data-entry-icon" transform="translate(630.000000, 3864.000000)">
                <g>
                    <g>
                        <path d="M18.78125,18.6640625 C19.1953125,18.6640625 19.4609375,18.9765625 19.4609375,19.3515625 C19.4609375,19.546875 19.3359375,19.8203125 19.03125,19.921875 L19.03125,19.921875 L15.234375,21.3203125 C14.9296875,21.421875 14.5625,21.578125 14.2734375,21.578125 C13.984375,21.578125 13.625,21.4296875 13.3203125,21.3203125 L13.3203125,21.3203125 L9.5234375,19.921875 C9.2109375,19.8203125 9.09375,19.546875 9.09375,19.3515625 C9.09375,18.96875 9.375,18.6640625 9.765625,18.6640625 C9.9765625,18.6640625 10.21875,18.7734375 10.40625,18.84375 L10.40625,18.84375 L14.2734375,20.28125 L18.1484375,18.84375 C18.3203125,18.7734375 18.5859375,18.6640625 18.78125,18.6640625 Z M22.6640625,5.6328125 C24.2265625,5.6328125 25.0234375,6.421875 25.0234375,7.9609375 L25.0234375,7.9609375 L25.0234375,15.078125 C25.0234375,16.625 24.2265625,17.4140625 22.6640625,17.4140625 L22.6640625,17.4140625 L6.3359375,17.4140625 C4.765625,17.4140625 3.9765625,16.625 3.9765625,15.078125 L3.9765625,15.078125 L3.9765625,7.9609375 C3.9765625,6.421875 4.765625,5.6328125 6.3359375,5.6328125 L6.3359375,5.6328125 Z M22.6171875,6.921875 L6.3828125,6.921875 C5.6640625,6.921875 5.265625,7.296875 5.265625,8.046875 L5.265625,8.046875 L5.265625,14.9921875 C5.265625,15.7421875 5.6640625,16.125 6.3828125,16.125 L6.3828125,16.125 L22.6171875,16.125 C23.3359375,16.125 23.734375,15.7421875 23.734375,14.9921875 L23.734375,14.9921875 L23.734375,8.046875 C23.734375,7.296875 23.3359375,6.921875 22.6171875,6.921875 L22.6171875,6.921875 Z M19.484375,13.296875 C19.6953125,13.296875 19.796875,13.40625 19.796875,13.6171875 L19.796875,13.6171875 L19.796875,14.1484375 C19.796875,14.359375 19.6953125,14.4609375 19.484375,14.4609375 L19.484375,14.4609375 L9.4921875,14.4609375 C9.28125,14.4609375 9.1796875,14.359375 9.1796875,14.1484375 L9.1796875,14.1484375 L9.1796875,13.6171875 C9.1796875,13.40625 9.28125,13.296875 9.4921875,13.296875 L9.4921875,13.296875 Z M21.84375,13.296875 C22.0625,13.296875 22.1640625,13.40625 22.1640625,13.6171875 L22.1640625,13.6171875 L22.1640625,14.1484375 C22.1640625,14.359375 22.0625,14.4609375 21.84375,14.4609375 L21.84375,14.4609375 L21.3203125,14.4609375 C21.109375,14.4609375 21,14.359375 21,14.1484375 L21,14.1484375 L21,13.6171875 C21,13.40625 21.109375,13.296875 21.3203125,13.296875 L21.3203125,13.296875 Z M7.65625,13.296875 C7.8671875,13.296875 7.96875,13.40625 7.96875,13.6171875 L7.96875,13.6171875 L7.96875,14.1484375 C7.96875,14.359375 7.8671875,14.4609375 7.65625,14.4609375 L7.65625,14.4609375 L7.125,14.4609375 C6.9140625,14.4609375 6.8125,14.359375 6.8125,14.1484375 L6.8125,14.1484375 L6.8125,13.6171875 C6.8125,13.40625 6.9140625,13.296875 7.125,13.296875 L7.125,13.296875 Z M21.84375,10.9375 C22.0625,10.9375 22.1640625,11.0390625 22.1640625,11.25 L22.1640625,11.25 L22.1640625,11.78125 C22.1640625,11.9921875 22.0625,12.09375 21.84375,12.09375 L21.84375,12.09375 L21.3203125,12.09375 C21.109375,12.09375 21,11.9921875 21,11.78125 L21,11.78125 L21,11.25 C21,11.0390625 21.109375,10.9375 21.3203125,10.9375 L21.3203125,10.9375 Z M19.484375,10.9375 C19.6953125,10.9375 19.796875,11.0390625 19.796875,11.25 L19.796875,11.25 L19.796875,11.78125 C19.796875,11.9921875 19.6953125,12.09375 19.484375,12.09375 L19.484375,12.09375 L18.953125,12.09375 C18.7421875,12.09375 18.640625,11.9921875 18.640625,11.78125 L18.640625,11.78125 L18.640625,11.25 C18.640625,11.0390625 18.7421875,10.9375 18.953125,10.9375 L18.953125,10.9375 Z M17.1171875,10.9375 C17.328125,10.9375 17.4296875,11.0390625 17.4296875,11.25 L17.4296875,11.25 L17.4296875,11.78125 C17.4296875,11.9921875 17.328125,12.09375 17.1171875,12.09375 L17.1171875,12.09375 L16.5859375,12.09375 C16.375,12.09375 16.2734375,11.9921875 16.2734375,11.78125 L16.2734375,11.78125 L16.2734375,11.25 C16.2734375,11.0390625 16.375,10.9375 16.5859375,10.9375 L16.5859375,10.9375 Z M14.75,10.9375 C14.9609375,10.9375 15.0703125,11.0390625 15.0703125,11.25 L15.0703125,11.25 L15.0703125,11.78125 C15.0703125,11.9921875 14.9609375,12.09375 14.75,12.09375 L14.75,12.09375 L14.2265625,12.09375 C14.0078125,12.09375 13.90625,11.9921875 13.90625,11.78125 L13.90625,11.78125 L13.90625,11.25 C13.90625,11.0390625 14.0078125,10.9375 14.2265625,10.9375 L14.2265625,10.9375 Z M12.3828125,10.9375 C12.6015625,10.9375 12.703125,11.0390625 12.703125,11.25 L12.703125,11.25 L12.703125,11.78125 C12.703125,11.9921875 12.6015625,12.09375 12.3828125,12.09375 L12.3828125,12.09375 L11.859375,12.09375 C11.6484375,12.09375 11.5390625,11.9921875 11.5390625,11.78125 L11.5390625,11.78125 L11.5390625,11.25 C11.5390625,11.0390625 11.6484375,10.9375 11.859375,10.9375 L11.859375,10.9375 Z M10.0234375,10.9375 C10.234375,10.9375 10.3359375,11.0390625 10.3359375,11.25 L10.3359375,11.25 L10.3359375,11.78125 C10.3359375,11.9921875 10.234375,12.09375 10.0234375,12.09375 L10.0234375,12.09375 L9.4921875,12.09375 C9.28125,12.09375 9.1796875,11.9921875 9.1796875,11.78125 L9.1796875,11.78125 L9.1796875,11.25 C9.1796875,11.0390625 9.28125,10.9375 9.4921875,10.9375 L9.4921875,10.9375 Z M7.65625,10.9375 C7.8671875,10.9375 7.96875,11.0390625 7.96875,11.25 L7.96875,11.25 L7.96875,11.78125 C7.96875,11.9921875 7.8671875,12.09375 7.65625,12.09375 L7.65625,12.09375 L7.125,12.09375 C6.9140625,12.09375 6.8125,11.9921875 6.8125,11.78125 L6.8125,11.78125 L6.8125,11.25 C6.8125,11.0390625 6.9140625,10.9375 7.125,10.9375 L7.125,10.9375 Z M21.84375,8.5703125 C22.0625,8.5703125 22.1640625,8.671875 22.1640625,8.8828125 L22.1640625,8.8828125 L22.1640625,9.4140625 C22.1640625,9.625 22.0625,9.7265625 21.84375,9.7265625 L21.84375,9.7265625 L21.3203125,9.7265625 C21.109375,9.7265625 21,9.625 21,9.4140625 L21,9.4140625 L21,8.8828125 C21,8.671875 21.109375,8.5703125 21.3203125,8.5703125 L21.3203125,8.5703125 Z M7.65625,8.5703125 C7.8671875,8.5703125 7.96875,8.671875 7.96875,8.8828125 L7.96875,8.8828125 L7.96875,9.4140625 C7.96875,9.625 7.8671875,9.7265625 7.65625,9.7265625 L7.65625,9.7265625 L7.125,9.7265625 C6.9140625,9.7265625 6.8125,9.625 6.8125,9.4140625 L6.8125,9.4140625 L6.8125,8.8828125 C6.8125,8.671875 6.9140625,8.5703125 7.125,8.5703125 L7.125,8.5703125 Z M19.484375,8.5703125 C19.6953125,8.5703125 19.796875,8.671875 19.796875,8.8828125 L19.796875,8.8828125 L19.796875,9.4140625 C19.796875,9.625 19.6953125,9.7265625 19.484375,9.7265625 L19.484375,9.7265625 L18.953125,9.7265625 C18.7421875,9.7265625 18.640625,9.625 18.640625,9.4140625 L18.640625,9.4140625 L18.640625,8.8828125 C18.640625,8.671875 18.7421875,8.5703125 18.953125,8.5703125 L18.953125,8.5703125 Z M10.0234375,8.5703125 C10.234375,8.5703125 10.3359375,8.671875 10.3359375,8.8828125 L10.3359375,8.8828125 L10.3359375,9.4140625 C10.3359375,9.625 10.234375,9.7265625 10.0234375,9.7265625 L10.0234375,9.7265625 L9.4921875,9.7265625 C9.28125,9.7265625 9.1796875,9.625 9.1796875,9.4140625 L9.1796875,9.4140625 L9.1796875,8.8828125 C9.1796875,8.671875 9.28125,8.5703125 9.4921875,8.5703125 L9.4921875,8.5703125 Z M17.1171875,8.5703125 C17.328125,8.5703125 17.4296875,8.671875 17.4296875,8.8828125 L17.4296875,8.8828125 L17.4296875,9.4140625 C17.4296875,9.625 17.328125,9.7265625 17.1171875,9.7265625 L17.1171875,9.7265625 L16.5859375,9.7265625 C16.375,9.7265625 16.2734375,9.625 16.2734375,9.4140625 L16.2734375,9.4140625 L16.2734375,8.8828125 C16.2734375,8.671875 16.375,8.5703125 16.5859375,8.5703125 L16.5859375,8.5703125 Z M12.3828125,8.5703125 C12.6015625,8.5703125 12.703125,8.671875 12.703125,8.8828125 L12.703125,8.8828125 L12.703125,9.4140625 C12.703125,9.625 12.6015625,9.7265625 12.3828125,9.7265625 L12.3828125,9.7265625 L11.859375,9.7265625 C11.6484375,9.7265625 11.5390625,9.625 11.5390625,9.4140625 L11.5390625,9.4140625 L11.5390625,8.8828125 C11.5390625,8.671875 11.6484375,8.5703125 11.859375,8.5703125 L11.859375,8.5703125 Z M14.75,8.5703125 C14.9609375,8.5703125 15.0703125,8.671875 15.0703125,8.8828125 L15.0703125,8.8828125 L15.0703125,9.4140625 C15.0703125,9.625 14.9609375,9.7265625 14.75,9.7265625 L14.75,9.7265625 L14.2265625,9.7265625 C14.0078125,9.7265625 13.90625,9.625 13.90625,9.4140625 L13.90625,9.4140625 L13.90625,8.8828125 C13.90625,8.671875 14.0078125,8.5703125 14.2265625,8.5703125 L14.2265625,8.5703125 Z"></path>
                    </g>
                </g>
            </g>
        </g>
    </g>
</svg>