<?xml version="1.0" encoding="UTF-8"?>
<svg width="24px" height="24px" viewBox="0 0 24 24" version="1.1" xmlns="http://www.w3.org/2000/svg" xmlns:xlink="http://www.w3.org/1999/xlink">
    <!-- Generator: Sketch 64 (93537) - https://sketch.com -->
    <title>day-delivery-icon</title>
    <desc>Created with Sketch.</desc>
    <g id="UI-style-guide" stroke="none" stroke-width="1" fill="none" fill-rule="evenodd">
        <g id="UI-Style-Guide-Copy" transform="translate(-313.000000, -4066.000000)" fill="#5F6C7B" fill-rule="nonzero">
            <g id="Day-delivery" transform="translate(313.000000, 4066.000000)">
                <g id="day-delivery-icon">
                    <path d="M12.0195312,3.48046875 C16.6777344,3.48046875 20.5273438,7.33886719 20.5273438,11.9970703 C20.5273438,16.6640625 16.6777344,20.5224609 12.0107422,20.5224609 C7.34375,20.5224609 3.48535156,16.6640625 3.48535156,11.9970703 C3.48535156,9.94042969 4.25878906,8.03320312 5.50683594,6.54785156 C5.83203125,6.14355469 6.33300781,6.10839844 6.640625,6.42480469 C6.93945312,6.74121094 6.91308594,7.15429688 6.640625,7.51464844 C5.62109375,8.71875 5.01464844,10.2832031 5.00585938,11.9970703 C4.99707031,15.8818359 8.1171875,19.0019531 12.0107422,19.0019531 C15.8955078,19.0019531 19.0068359,15.8818359 19.0068359,11.9970703 C19.0068359,8.31445312 16.2207031,5.31738281 12.6083984,5.01855469 L12.6083984,5.01855469 L12.6083984,7.3828125 C12.6083984,7.76074219 12.3447266,8.06835938 11.9580078,8.06835938 C11.5712891,8.06835938 11.3076172,7.76074219 11.3076172,7.3828125 L11.3076172,7.3828125 L11.3076172,4.21875 C11.3076172,3.76171875 11.5537109,3.48046875 12.0195312,3.48046875 Z M8.14355469,8.68359375 C7.8359375,8.24414062 8.29296875,7.78710937 8.73242187,8.09472656 L8.73242187,8.09472656 L13.0742187,11.109375 C13.8740234,11.6630859 14.0058594,12.6035156 13.3378906,13.2978516 C12.6523437,13.9658203 11.7119141,13.8164062 11.1582031,13.0166016 L11.1582031,13.0166016 Z"></path>
                </g>
            </g>
        </g>
    </g>
</svg>