<?xml version="1.0" encoding="UTF-8"?>
<svg width="24px" height="24px" viewBox="0 0 24 24" version="1.1" xmlns="http://www.w3.org/2000/svg" xmlns:xlink="http://www.w3.org/1999/xlink">
    <!-- Generator: Sketch 64 (93537) - https://sketch.com -->
    <title>design-icon</title>
    <desc>Created with Sketch.</desc>
    <g id="UI-style-guide" stroke="none" stroke-width="1" fill="none" fill-rule="evenodd">
        <g id="UI-Style-Guide-Copy" transform="translate(-467.000000, -3864.000000)" fill="#3DA9FC" fill-rule="nonzero">
            <g id="design-icon" transform="translate(467.000000, 3864.000000)">
                <g id="Path">
                    <g transform="translate(5.274654, 6.447931)">
                        <path d="M12.2536661,2.70831852 L13.1149942,1.85577946 C13.5544474,1.4251154 13.5632364,0.959295084 13.1765177,0.563787272 L12.8864786,0.273748209 C12.4997599,-0.121759603 12.0251505,-0.0778142908 11.5944864,0.335271647 L10.7331583,1.18781071 L12.2536661,2.70831852 Z"></path>
                        <path d="M13.0886271,12.0686701 C13.3347208,11.8137873 13.3435099,11.4007013 13.0886271,11.1458185 L2.47143956,0.537420084 C2.21655675,0.282537272 1.79468175,0.273748209 1.548588,0.537420084 C1.30249425,0.774724772 1.30249425,1.20538883 1.548588,1.45148258 L12.1745646,12.0686701 C12.4206583,12.3147638 12.8425333,12.3235529 13.0886271,12.0686701 Z"></path>
                        <polygon points="9.15112706 5.79327946 11.5065958 3.44659977 9.99487706 1.93488102 7.64819737 4.28156071"></polygon>
                        <path d="M0.379642685,13.3606623 L2.3220255,12.613592 L6.8220255,8.11359196 L5.31030675,6.61066227 L0.81909581,11.1018732 L0.0192911223,12.9915216 C-0.0685995027,13.2024591 0.159916122,13.4485529 0.379642685,13.3606623 Z"></path>
                    </g>
                </g>
            </g>
        </g>
    </g>
</svg>