<?xml version="1.0" encoding="UTF-8"?>
<svg width="24px" height="24px" viewBox="0 0 24 24" version="1.1" xmlns="http://www.w3.org/2000/svg" xmlns:xlink="http://www.w3.org/1999/xlink">
    <!-- Generator: Sketch 64 (93537) - https://sketch.com -->
    <title>down-icon</title>
    <desc>Created with Sketch.</desc>
    <g id="UI-style-guide" stroke="none" stroke-width="1" fill="none" fill-rule="evenodd">
        <g id="UI-Style-Guide-Copy" transform="translate(-386.000000, -3930.000000)" fill="#5F6C7B" fill-rule="nonzero">
            <g id="down-icon" transform="translate(386.000000, 3930.000000)">
                <g transform="translate(12.000000, 12.000000) scale(-1, 1) rotate(-270.000000) translate(-12.000000, -12.000000) ">
                    <path d="M10.1228027,17.4140625 C10.2941895,17.4140625 10.4338379,17.3505859 10.5480957,17.2426758 L15.2770996,12.6152344 C15.4104004,12.4882812 15.4802246,12.3359375 15.4802246,12.1645508 C15.4802246,11.9931641 15.4104004,11.828125 15.2834473,11.7075195 L10.5544434,7.08642578 C10.4401855,6.97216797 10.2941895,6.90869141 10.1228027,6.90869141 C9.78637695,6.90869141 9.51977539,7.17529297 9.51977539,7.51171875 C9.51977539,7.67675781 9.58959961,7.82910156 9.69750977,7.94335938 L14.013916,12.1645508 L9.69750977,16.3793945 C9.58959961,16.4936523 9.51977539,16.6459961 9.51977539,16.8110352 C9.51977539,17.1538086 9.78637695,17.4140625 10.1228027,17.4140625 Z"></path>
                </g>
            </g>
        </g>
    </g>
</svg>