<?xml version="1.0" encoding="UTF-8"?>
<svg width="24px" height="24px" viewBox="0 0 24 24" version="1.1" xmlns="http://www.w3.org/2000/svg" xmlns:xlink="http://www.w3.org/1999/xlink">
    <!-- Generator: Sketch 64 (93537) - https://sketch.com -->
    <title>edit-icon</title>
    <desc>Created with Sketch.</desc>
    <g id="UI-style-guide" stroke="none" stroke-width="1" fill="none" fill-rule="evenodd">
        <g id="UI-Style-Guide-Copy" transform="translate(-466.000000, -3996.000000)" fill="#5F6C7B" fill-rule="nonzero">
            <g id="edit-icon" transform="translate(466.000000, 3996.000000)">
                <g>
                    <path d="M15.4355469,5.87792969 L13.9853516,7.31933594 L6.95410156,7.31933594 C6.14550781,7.31933594 5.69726562,7.75 5.69726562,8.59375 L5.69726562,8.59375 L5.69726562,17.9628906 C5.69726562,18.8066406 6.14550781,19.2373047 6.95410156,19.2373047 L6.95410156,19.2373047 L16.5869141,19.2373047 C17.1494141,19.2373047 17.6064453,18.8066406 17.6064453,17.9628906 L17.6064453,17.9628906 L17.6064453,10.3076172 L19.0566406,8.85742188 L19.0566406,18.0595703 C19.0566406,19.7910156 18.1601562,20.6787109 16.6396484,20.6787109 L16.6396484,20.6787109 L6.90136719,20.6787109 C5.14355469,20.6787109 4.24707031,19.7998047 4.24707031,18.0595703 L4.24707031,18.0595703 L4.24707031,8.49707031 C4.24707031,6.75683594 5.14355469,5.87792969 6.90136719,5.87792969 L6.90136719,5.87792969 L15.4355469,5.87792969 Z M18.1162109,5.30664063 L19.3027344,6.484375 L12.0341797,13.7529297 L10.390625,14.4560547 C10.2236328,14.5263672 10.0390625,14.3242188 10.109375,14.1660156 L10.109375,14.1660156 L10.8564453,12.5751953 L18.1162109,5.30664063 Z M19.3554688,4.07617188 C19.6367188,3.79492188 20.0673828,3.75976563 20.3310547,4.0234375 L20.3310547,4.0234375 L20.5332031,4.22558594 C20.8232422,4.515625 20.8144531,4.94628906 20.5244141,5.24511719 L20.5244141,5.24511719 L19.9179688,5.87792969 L18.7314453,4.68261719 Z"></path>
                </g>
            </g>
        </g>
    </g>
</svg>