<?xml version="1.0" encoding="UTF-8"?>
<svg width="25px" height="24px" viewBox="0 0 25 24" version="1.1" xmlns="http://www.w3.org/2000/svg" xmlns:xlink="http://www.w3.org/1999/xlink">
    <!-- Generator: Sketch 64 (93537) - https://sketch.com -->
    <title>facebook-icon</title>
    <desc>Created with Sketch.</desc>
    <g id="UI-style-guide" stroke="none" stroke-width="1" fill="none" fill-rule="evenodd">
        <g id="UI-Style-Guide-Copy" transform="translate(-723.000000, -3864.000000)" fill="#5F6C7B">
            <g id="facbook-icon" transform="translate(723.500000, 3864.000000)">
                <g id="facebook">
                    <g>
                        <path d="M18.5454545,4 L5.45454545,4 C4.65236364,4 4,4.65236364 4,5.45454545 L4,18.5454545 C4,19.3476364 4.65236364,20 5.45454545,20 L10.9090909,20 C11.1098182,20 11.2727273,19.8370909 11.2727273,19.6363636 L11.2727273,14.5454545 C11.2727273,14.3447273 11.1098182,14.1818182 10.9090909,14.1818182 L10.1970909,14.1818182 C9.99636364,14.1818182 9.83345455,14.0189091 9.83345455,13.8181818 L9.83345455,11.6363636 C9.83345455,11.4356364 9.99636364,11.2727273 10.1970909,11.2727273 L10.9090909,11.2727273 C11.1098182,11.2727273 11.2727273,11.1098182 11.2727273,10.9090909 L11.2727273,10.1818182 C11.2727273,8.37745455 12.7410909,6.90909091 14.5454545,6.90909091 L16.7272727,6.90909091 C16.928,6.90909091 17.0909091,7.072 17.0909091,7.27272727 L17.0909091,9.45454545 C17.0909091,9.65527273 16.928,9.81818182 16.7272727,9.81818182 L14.5454545,9.81818182 C14.3447273,9.81818182 14.1818182,9.98109091 14.1818182,10.1818182 L14.1818182,10.9090909 C14.1818182,11.1098182 14.3447273,11.2727273 14.5454545,11.2727273 L16.7272727,11.2727273 C16.8341818,11.2727273 16.936,11.3192727 17.0043636,11.4007273 C17.0741818,11.4829091 17.104,11.5905455 17.0858182,11.6967273 L16.7221818,13.8785455 C16.6930909,14.0538182 16.5425455,14.1818182 16.3636364,14.1818182 L14.5454545,14.1818182 C14.3447273,14.1818182 14.1818182,14.3447273 14.1818182,14.5454545 L14.1818182,19.6363636 C14.1818182,19.8370909 14.3447273,20 14.5454545,20 L18.5454545,20 C19.3476364,20 20,19.3476364 20,18.5454545 L20,5.45454545 C20,4.65236364 19.3476364,4 18.5454545,4"></path>
                    </g>
                </g>
            </g>
        </g>
    </g>
</svg>