<?xml version="1.0" encoding="UTF-8"?>
<svg width="24px" height="24px" viewBox="0 0 24 24" version="1.1" xmlns="http://www.w3.org/2000/svg" xmlns:xlink="http://www.w3.org/1999/xlink">
    <!-- Generator: Sketch 64 (93537) - https://sketch.com -->
    <title>file-icon</title>
    <desc>Created with Sketch.</desc>
    <g id="UI-style-guide" stroke="none" stroke-width="1" fill="none" fill-rule="evenodd">
        <g id="UI-Style-Guide-Copy" transform="translate(-814.000000, -3930.000000)" fill="#3DA9FC" fill-rule="nonzero">
            <g id="file-icon" transform="translate(814.000000, 3930.000000)">
                <g>
                    <path d="M12.0766602,2.89697266 L12.0766602,8.71582031 C12.0766602,9.72021484 12.5498047,10.1933594 13.5541992,10.1933594 L13.5541992,10.1933594 L19.3066406,10.1933594 L19.3066406,17.2822266 C19.3066406,18.9423828 18.4682617,19.7890625 16.8330078,19.7890625 L16.8330078,19.7890625 L8.47412109,19.7890625 C6.83886719,19.7890625 6.00048828,18.9506836 6.00048828,17.2822266 L6.00048828,17.2822266 L6.00048828,5.39550781 C6.00048828,3.74365234 6.83886719,2.89697266 8.47412109,2.89697266 L8.47412109,2.89697266 L12.0766602,2.89697266 Z M13.1806641,2.97167969 C13.5126953,3.02978516 13.8530273,3.27050781 14.2265625,3.65234375 L14.2265625,3.65234375 L18.5429688,8.04345703 C18.9248047,8.43359375 19.1655273,8.75732422 19.215332,9.09765625 L19.215332,9.09765625 L13.6123047,9.09765625 C13.3217773,9.09765625 13.1806641,8.94824219 13.1806641,8.65771484 L13.1806641,8.65771484 Z"></path>
                </g>
            </g>
        </g>
    </g>
</svg>