<?xml version="1.0" encoding="UTF-8"?>
<svg width="24px" height="24px" viewBox="0 0 24 24" version="1.1" xmlns="http://www.w3.org/2000/svg" xmlns:xlink="http://www.w3.org/1999/xlink">
    <!-- Generator: Sketch 64 (93537) - https://sketch.com -->
    <title>filter-list-icon</title>
    <desc>Created with Sketch.</desc>
    <g id="UI-style-guide" stroke="none" stroke-width="1" fill="none" fill-rule="evenodd">
        <g id="UI-Style-Guide-Copy" transform="translate(-386.000000, -3864.000000)" fill="#5F6C7B" fill-rule="nonzero">
            <g id="filter-icon" transform="translate(386.000000, 3864.000000)">
                <g id="Path">
                    <g transform="translate(2.000000, 2.000000)">
                        <path d="M10.4912109,5.5234375 C11.4404297,5.5234375 12.2050781,4.76757812 12.2050781,3.82714844 C12.2050781,2.88671875 11.4492188,2.13085938 10.4912109,2.13085938 C9.55078125,2.13085938 8.78613281,2.88671875 8.78613281,3.82714844 C8.78613281,4.76757812 9.55078125,5.5234375 10.4912109,5.5234375 Z" transform="translate(10.495605, 3.827148) rotate(90.000000) translate(-10.495605, -3.827148) "></path>
                        <path d="M10.5,11.7021484 C11.4316406,11.7021484 12.1875,10.9462891 12.1875,10.0058594 C12.1875,9.06542969 11.4404297,8.30957031 10.5,8.30957031 C9.55957031,8.30957031 8.80371094,9.06542969 8.80371094,10.0058594 C8.80371094,10.9462891 9.55957031,11.7021484 10.5,11.7021484 Z" transform="translate(10.495605, 10.005859) rotate(90.000000) translate(-10.495605, -10.005859) "></path>
                        <path d="M10.5043945,17.8852539 C11.4360352,17.8852539 12.2006836,17.1293945 12.2006836,16.1889648 C12.2006836,15.2485352 11.4448242,14.4926758 10.5043945,14.4926758 C9.54638672,14.4926758 8.79052734,15.2485352 8.79052734,16.1889648 C8.79052734,17.1293945 9.54638672,17.8852539 10.5043945,17.8852539 Z" transform="translate(10.495605, 16.188965) rotate(90.000000) translate(-10.495605, -16.188965) "></path>
                    </g>
                </g>
            </g>
        </g>
    </g>
</svg>