<?xml version="1.0" encoding="UTF-8"?>
<svg width="32px" height="32px" viewBox="0 0 32 32" version="1.1" xmlns="http://www.w3.org/2000/svg" xmlns:xlink="http://www.w3.org/1999/xlink">
    <!-- Generator: Sketch 64 (93537) - https://sketch.com -->
    <title>filter btn</title>
    <desc>Created with Sketch.</desc>
    <g id="UI-style-guide" stroke="none" stroke-width="1" fill="none" fill-rule="evenodd">
        <g id="UI-Style-Guide-Copy" transform="translate(-950.000000, -3864.000000)">
            <g id="filter-btn" transform="translate(950.000000, 3864.000000)">
                <g>
                    <circle id="Oval" stroke="#EFEFEF" fill="#FFFFFF" cx="16" cy="16" r="15.5"></circle>
                    <g id="filter" transform="translate(10.181818, 10.181818)" fill="#5F6C7B" fill-rule="nonzero">
                        <path d="M1.16363636,0 C1.80363636,0 2.32727273,0.523636364 2.32727273,1.16363636 C2.32727273,1.80363636 1.80363636,2.32727273 1.16363636,2.32727273 C0.523636364,2.32727273 0,1.80363636 0,1.16363636 C0,0.523636364 0.523636364,0 1.16363636,0 Z" id="Path"></path>
                        <path d="M1.16363636,4.65454545 C1.80363636,4.65454545 2.32727273,5.17818182 2.32727273,5.81818182 C2.32727273,6.45818182 1.80363636,6.98181818 1.16363636,6.98181818 C0.523636364,6.98181818 0,6.45818182 0,5.81818182 C0,5.17818182 0.523636364,4.65454545 1.16363636,4.65454545 Z" id="Path"></path>
                        <path d="M1.16363636,9.30909091 C1.80363636,9.30909091 2.32727273,9.83272727 2.32727273,10.4727273 C2.32727273,11.1127273 1.80363636,11.6363636 1.16363636,11.6363636 C0.523636364,11.6363636 0,11.1127273 0,10.4727273 C0,9.83272727 0.523636364,9.30909091 1.16363636,9.30909091 Z" id="Path"></path>
                        <path d="M5.81818182,0 C6.45818182,0 6.98181818,0.523636364 6.98181818,1.16363636 C6.98181818,1.80363636 6.45818182,2.32727273 5.81818182,2.32727273 C5.17818182,2.32727273 4.65454545,1.80363636 4.65454545,1.16363636 C4.65454545,0.523636364 5.17818182,0 5.81818182,0 Z" id="Path"></path>
                        <path d="M5.81818182,4.65454545 C6.45818182,4.65454545 6.98181818,5.17818182 6.98181818,5.81818182 C6.98181818,6.45818182 6.45818182,6.98181818 5.81818182,6.98181818 C5.17818182,6.98181818 4.65454545,6.45818182 4.65454545,5.81818182 C4.65454545,5.17818182 5.17818182,4.65454545 5.81818182,4.65454545 Z" id="Path"></path>
                        <path d="M5.81818182,9.30909091 C6.45818182,9.30909091 6.98181818,9.83272727 6.98181818,10.4727273 C6.98181818,11.1127273 6.45818182,11.6363636 5.81818182,11.6363636 C5.17818182,11.6363636 4.65454545,11.1127273 4.65454545,10.4727273 C4.65454545,9.83272727 5.17818182,9.30909091 5.81818182,9.30909091 Z" id="Path"></path>
                        <path d="M10.4727273,0 C11.1127273,0 11.6363636,0.523636364 11.6363636,1.16363636 C11.6363636,1.80363636 11.1127273,2.32727273 10.4727273,2.32727273 C9.83272727,2.32727273 9.30909091,1.80363636 9.30909091,1.16363636 C9.30909091,0.523636364 9.83272727,0 10.4727273,0 Z" id="Path"></path>
                        <path d="M10.4727273,4.65454545 C11.1127273,4.65454545 11.6363636,5.17818182 11.6363636,5.81818182 C11.6363636,6.45818182 11.1127273,6.98181818 10.4727273,6.98181818 C9.83272727,6.98181818 9.30909091,6.45818182 9.30909091,5.81818182 C9.30909091,5.17818182 9.83272727,4.65454545 10.4727273,4.65454545 Z" id="Path"></path>
                        <path d="M10.4727273,9.30909091 C11.1127273,9.30909091 11.6363636,9.83272727 11.6363636,10.4727273 C11.6363636,11.1127273 11.1127273,11.6363636 10.4727273,11.6363636 C9.83272727,11.6363636 9.30909091,11.1127273 9.30909091,10.4727273 C9.30909091,9.83272727 9.83272727,9.30909091 10.4727273,9.30909091 Z" id="Path"></path>
                    </g>
                </g>
            </g>
        </g>
    </g>
</svg>