<?xml version="1.0" encoding="UTF-8"?>
<svg width="24px" height="24px" viewBox="0 0 24 24" version="1.1" xmlns="http://www.w3.org/2000/svg" xmlns:xlink="http://www.w3.org/1999/xlink">
    <!-- Generator: Sketch 64 (93537) - https://sketch.com -->
    <title>filter-icon</title>
    <desc>Created with Sketch.</desc>
    <g id="UI-style-guide" stroke="none" stroke-width="1" fill="none" fill-rule="evenodd">
        <g id="UI-Style-Guide-Copy" transform="translate(-233.000000, -4066.000000)" fill="#5F6C7B" fill-rule="nonzero">
            <g id="filter-icon" transform="translate(233.000000, 4066.000000)">
                <g>
                    <path d="M15.9150391,15.5654297 C16.3105469,15.5654297 16.6181641,15.8818359 16.6181641,16.2861328 C16.6181641,16.6816406 16.3105469,16.9980469 15.9150391,16.9980469 L15.9150391,16.9980469 L7.26660156,16.9980469 C6.87109375,16.9980469 6.56347656,16.6728516 6.56347656,16.2861328 C6.56347656,15.8818359 6.87109375,15.5654297 7.26660156,15.5654297 L7.26660156,15.5654297 Z M17.6113281,11.2851562 C18.0068359,11.2851562 18.3232422,11.6015625 18.3232422,11.9970703 C18.3232422,12.3925781 18.0068359,12.7089844 17.6113281,12.7089844 L17.6113281,12.7089844 L5.5703125,12.7089844 C5.17480469,12.7089844 4.85839844,12.3925781 4.85839844,11.9970703 C4.85839844,11.6015625 5.17480469,11.2851562 5.5703125,11.2851562 L5.5703125,11.2851562 Z M19.3164062,6.99609375 C19.7119141,6.99609375 20.0195312,7.3125 20.0195312,7.70800781 C20.0195312,8.10351562 19.7119141,8.41992188 19.3164062,8.41992188 L19.3164062,8.41992188 L3.83007812,8.41992188 C3.43457031,8.41992188 3.11816406,8.10351562 3.11816406,7.70800781 C3.11816406,7.3125 3.43457031,6.99609375 3.83007812,6.99609375 L3.83007812,6.99609375 Z"></path>
                </g>
            </g>
        </g>
    </g>
</svg>