<?xml version="1.0" encoding="UTF-8"?>
<svg width="24px" height="24px" viewBox="0 0 24 24" version="1.1" xmlns="http://www.w3.org/2000/svg" xmlns:xlink="http://www.w3.org/1999/xlink">
    <!-- Generator: Sketch 64 (93537) - https://sketch.com -->
    <title>heart-icon</title>
    <desc>Created with Sketch.</desc>
    <g id="UI-style-guide" stroke="none" stroke-width="1" fill="none" fill-rule="evenodd">
        <g id="UI-Style-Guide-Copy" transform="translate(-312.000000, -3864.000000)" fill="#5F6C7B" fill-rule="nonzero">
            <g id="favorite-icon" transform="translate(312.000000, 3864.000000)">
                <g id="Combined-Shape">
                    <g>
                        <path d="M16.0507812,4.5703125 C18.7578125,4.5703125 20.8144531,6.67089844 20.8144531,9.65039062 C20.8144531,13.1923828 17.8349609,16.6816406 13.1679688,19.6787109 C12.9658203,19.8105469 12.6845703,19.9335938 12.5,19.9335938 C12.3154297,19.9335938 12.0429688,19.8105469 11.8320312,19.6787109 C7.16503906,16.6816406 4.19433594,13.1923828 4.19433594,9.65039062 C4.19433594,6.67089844 6.2421875,4.5703125 8.94921875,4.5703125 C10.5048828,4.5703125 11.7617188,5.30859375 12.5,6.41601562 C13.2558594,5.29980469 14.4951172,4.5703125 16.0507812,4.5703125 Z M16.0332031,6.02050781 C14.4951172,6.02050781 13.6513672,6.98730469 13.0800781,7.78710938 C12.8339844,8.11230469 12.7109375,8.2265625 12.5,8.2265625 C12.2978516,8.2265625 12.1484375,8.12109375 11.9199219,7.78710938 C11.3925781,6.96972656 10.5136719,6.02050781 8.97558594,6.02050781 C7.06835938,6.02050781 5.65332031,7.47070312 5.65332031,9.64160156 C5.65332031,12.6826172 8.84375,15.9873047 12.3330078,18.3076172 C12.4121094,18.3603516 12.4736328,18.3955078 12.5,18.3955078 C12.5351562,18.3955078 12.5878906,18.3603516 12.6669922,18.3076172 C16.15625,15.9873047 19.3466797,12.6826172 19.3466797,9.64160156 C19.3466797,7.47070312 17.9404297,6.02050781 16.0332031,6.02050781 Z"></path>
                    </g>
                </g>
            </g>
        </g>
    </g>
</svg>