<?xml version="1.0" encoding="UTF-8"?>
<svg width="22px" height="24px" viewBox="0 0 22 24" version="1.1" xmlns="http://www.w3.org/2000/svg" xmlns:xlink="http://www.w3.org/1999/xlink">
    <!-- Generator: Sketch 64 (93537) - https://sketch.com -->
    <title>instagram-icon</title>
    <desc>Created with Sketch.</desc>
    <g id="UI-style-guide" stroke="none" stroke-width="1" fill="none" fill-rule="evenodd">
        <g id="UI-Style-Guide-Copy" transform="translate(-234.000000, -3996.000000)" fill="#5F6C7B">
            <g id="instagram" transform="translate(234.000000, 3996.000000)">
                <g id="instagram-icon">
                    <g transform="translate(2.000000, 3.000000)">
                        <path d="M4.89109091,1.63636364 C3.09681818,1.63636364 1.63636364,3.09681818 1.63636364,4.89109091 L1.63636364,13.1089091 C1.63636364,14.9031818 3.09681818,16.3636364 4.89109091,16.3636364 L13.1089091,16.3636364 C14.9031818,16.3636364 16.3636364,14.9031818 16.3636364,13.1089091 L16.3636364,4.89109091 C16.3636364,3.09681818 14.9031818,1.63636364 13.1089091,1.63636364 L4.89109091,1.63636364 Z M13.1089091,18 L4.89109091,18 C2.19436364,18 0,15.8056364 0,13.1089091 L0,4.89109091 C0,2.19436364 2.19436364,0 4.89109091,0 L13.1089091,0 C15.8056364,0 18,2.19436364 18,4.89109091 L18,13.1089091 C18,15.8056364 15.8056364,18 13.1089091,18 L13.1089091,18 Z" id="Fill-21"></path>
                        <path d="M9,5.72727273 C7.19509091,5.72727273 5.72727273,7.19509091 5.72727273,9 C5.72727273,10.8049091 7.19509091,12.2727273 9,12.2727273 C10.8049091,12.2727273 12.2727273,10.8049091 12.2727273,9 C12.2727273,7.19509091 10.8049091,5.72727273 9,5.72727273 M9,13.9090909 C6.29263636,13.9090909 4.09090909,11.7073636 4.09090909,9 C4.09090909,6.29263636 6.29263636,4.09090909 9,4.09090909 C11.7073636,4.09090909 13.9090909,6.29263636 13.9090909,9 C13.9090909,11.7073636 11.7073636,13.9090909 9,13.9090909" id="Fill-23"></path>
                        <path d="M13.9090909,4.09090909 C13.4582727,4.09090909 13.0909091,3.72354545 13.0909091,3.27272727 C13.0909091,2.82190909 13.4582727,2.45454545 13.9090909,2.45454545 C14.3599091,2.45454545 14.7272727,2.82190909 14.7272727,3.27272727 C14.7272727,3.72354545 14.3599091,4.09090909 13.9090909,4.09090909" id="Fill-25"></path>
                    </g>
                </g>
            </g>
        </g>
    </g>
</svg>