<?xml version="1.0" encoding="UTF-8"?>
<svg width="24px" height="24px" viewBox="0 0 24 24" version="1.1" xmlns="http://www.w3.org/2000/svg" xmlns:xlink="http://www.w3.org/1999/xlink">
    <!-- Generator: Sketch 64 (93537) - https://sketch.com -->
    <title>logout-icon</title>
    <desc>Created with Sketch.</desc>
    <g id="UI-style-guide" stroke="none" stroke-width="1" fill="none" fill-rule="evenodd">
        <g id="UI-Style-Guide-Copy" transform="translate(-546.000000, -3996.000000)" fill="#5F6C7B" fill-rule="nonzero">
            <g id="logout-icon" transform="translate(546.000000, 3996.000000)">
                <g>
                    <path d="M16.5307617,7.92578125 C15.6958008,7.16113281 16.7768555,6.14160156 17.5151367,6.81835937 C19.2290039,8.33007812 20.3188477,10.5537109 20.3188477,12.9970703 C20.3188477,17.5410156 16.5483398,21.3115234 12.0043945,21.3115234 C7.46044922,21.3115234 3.68115234,17.5410156 3.68115234,12.9970703 C3.68115234,10.5537109 4.77978516,8.33007812 6.49365234,6.81835937 C7.22314453,6.14160156 8.30419922,7.16113281 7.46923828,7.92578125 C6.08056641,9.16503906 5.20166016,10.9755859 5.20166016,12.9970703 C5.20166016,16.7675781 8.23388672,19.7998047 12.0043945,19.7998047 C15.7749023,19.7998047 18.7983398,16.7675781 18.7983398,12.9970703 C18.7983398,10.9755859 17.9282227,9.14746094 16.5307617,7.92578125 Z M12.0043945,3.98828125 C12.4438477,3.98828125 12.7338867,4.3046875 12.7338867,4.77050781 L12.7338867,4.77050781 L12.7338867,12.1796875 C12.7338867,12.6367188 12.4438477,12.953125 12.0043945,12.953125 C11.5649414,12.953125 11.2661133,12.6367188 11.2661133,12.1796875 L11.2661133,12.1796875 L11.2661133,4.77050781 C11.2661133,4.3046875 11.5649414,3.98828125 12.0043945,3.98828125 Z"></path>
                </g>
            </g>
        </g>
    </g>
</svg>