<?xml version="1.0" encoding="UTF-8"?>
<svg width="24px" height="24px" viewBox="0 0 24 24" version="1.1" xmlns="http://www.w3.org/2000/svg" xmlns:xlink="http://www.w3.org/1999/xlink">
    <!-- Generator: Sketch 64 (93537) - https://sketch.com -->
    <title>mail-icon</title>
    <desc>Created with Sketch.</desc>
    <g id="UI-style-guide" stroke="none" stroke-width="1" fill="none" fill-rule="evenodd">
        <g id="UI-Style-Guide-Copy" transform="translate(-312.000000, -3996.000000)" fill="#5F6C7B" fill-rule="nonzero">
            <g id="mail-icon" transform="translate(312.000000, 3996.000000)">
                <g>
                    <g>
                        <path d="M19.0786133,4.79882812 C20.8364258,4.79882812 21.7329102,5.68652344 21.7329102,7.41796875 L21.7329102,7.41796875 L21.7329102,16.6025391 C21.7329102,18.3339844 20.8452148,19.2216797 19.315918,19.2216797 L19.315918,19.2216797 L5.92138672,19.2216797 C4.16357422,19.2216797 3.26708984,18.3339844 3.26708984,16.6025391 L3.26708984,16.6025391 L3.26708984,7.41796875 C3.26708984,5.67773438 4.15478516,4.79882812 5.68408203,4.79882812 L5.68408203,4.79882812 Z M14.7807617,12.9111328 L14.2709961,13.4121094 C13.6821289,14.0009766 13.1108398,14.2382812 12.5131836,14.2382812 C11.9155273,14.2382812 11.3442383,14.0009766 10.7553711,13.4121094 L10.7553711,13.4121094 L10.2456055,12.9111328 L5.34130859,17.7626953 C5.49951172,17.8242188 5.68408203,17.8505859 5.89501953,17.8505859 L5.89501953,17.8505859 L19.1137695,17.8505859 C19.324707,17.8505859 19.5180664,17.8154297 19.6762695,17.7539062 L19.6762695,17.7539062 L14.7807617,12.9111328 Z M4.63818359,7.40039062 L4.63818359,16.6464844 L9.32275391,12.0058594 L4.63818359,7.40039062 Z M20.3706055,7.42675781 L15.7036133,12.0058594 L20.3706055,16.6201172 L20.3706055,7.42675781 Z M19.1137695,6.16992188 L5.89501953,6.16992188 C5.67529297,6.16992188 5.48193359,6.19628906 5.32373047,6.2578125 L5.32373047,6.2578125 L11.5288086,12.3837891 C11.8803711,12.7353516 12.1879883,12.8847656 12.5131836,12.8847656 C12.8383789,12.8847656 13.1459961,12.7353516 13.4975586,12.3837891 L13.4975586,12.3837891 L19.7026367,6.26660156 C19.5268555,6.20507812 19.3334961,6.16992188 19.1137695,6.16992188 L19.1137695,6.16992188 Z"></path>
                    </g>
                </g>
            </g>
        </g>
    </g>
</svg>