<?xml version="1.0" encoding="UTF-8"?>
<svg width="24px" height="24px" viewBox="0 0 24 24" version="1.1" xmlns="http://www.w3.org/2000/svg" xmlns:xlink="http://www.w3.org/1999/xlink">
    <!-- Generator: Sketch 64 (93537) - https://sketch.com -->
    <title>menu-icon</title>
    <desc>Created with Sketch.</desc>
    <g id="UI-style-guide" stroke="none" stroke-width="1" fill="none" fill-rule="evenodd">
        <g id="UI-Style-Guide-Copy" transform="translate(-152.000000, -3864.000000)" fill="#5F6C7B" fill-rule="nonzero">
            <g id="menu-icon" transform="translate(152.000000, 3864.000000)">
                <g id="Group-2" transform="translate(4.882812, 6.226562)">
                    <path d="M14.4140625,1.1953125 C14.75,1.1953125 15.015625,0.9296875 15.015625,0.59375 C15.015625,0.2578125 14.75,0 14.4140625,0 L0.6015625,0 C0.265625,0 0,0.265625 0,0.59375 C0,0.9296875 0.265625,1.1953125 0.6015625,1.1953125 L14.4140625,1.1953125 Z" id="Path"></path>
                    <path d="M14.4140625,5.0625 C14.75,5.0625 15.015625,4.796875 15.015625,4.46875 C15.015625,4.1328125 14.75,3.8671875 14.4140625,3.8671875 L0.6015625,3.8671875 C0.265625,3.8671875 0,4.1328125 0,4.46875 C0,4.796875 0.265625,5.0625 0.6015625,5.0625 L14.4140625,5.0625 Z" id="Path"></path>
                    <path d="M14.4140625,8.9375 C14.75,8.9375 15.015625,8.671875 15.015625,8.3359375 C15.015625,8.0078125 14.75,7.7421875 14.4140625,7.7421875 L0.6015625,7.7421875 C0.265625,7.7421875 0,8.0078125 0,8.3359375 C0,8.671875 0.265625,8.9375 0.6015625,8.9375 L14.4140625,8.9375 Z" id="Path"></path>
                    <path d="M8.453125,12.8125 C8.7890625,12.8125 9.0546875,12.546875 9.0546875,12.2109375 C9.0546875,11.875 8.7890625,11.609375 8.453125,11.609375 L0.6015625,11.609375 C0.265625,11.609375 0,11.875 0,12.2109375 C0,12.546875 0.265625,12.8125 0.6015625,12.8125 L8.453125,12.8125 Z" id="Path"></path>
                </g>
            </g>
        </g>
    </g>
</svg>