<?xml version="1.0" encoding="UTF-8"?>
<svg width="24px" height="24px" viewBox="0 0 24 24" version="1.1" xmlns="http://www.w3.org/2000/svg" xmlns:xlink="http://www.w3.org/1999/xlink">
    <!-- Generator: Sketch 64 (93537) - https://sketch.com -->
    <title>message-icon</title>
    <desc>Created with Sketch.</desc>
    <g id="UI-style-guide" stroke="none" stroke-width="1" fill="none" fill-rule="evenodd">
        <g id="UI-Style-Guide-Copy" transform="translate(-724.000000, -3996.000000)" fill="#5F6C7B" fill-rule="nonzero">
            <g id="message-icon" transform="translate(724.000000, 3996.000000)">
                <g>
                    <path d="M11.9956055,3.3046875 C17.277832,3.3046875 21.496582,6.70605469 21.496582,10.9248047 C21.496582,15.3193359 17.137207,18.6679688 11.3188477,18.5273438 C9.60498047,19.7490234 7.29345703,20.8740234 6.15966797,20.8740234 C5.25439453,20.8740234 4.96435547,20.0917969 5.43017578,19.4677734 C5.79931641,18.984375 6.47607422,18.0263672 6.84521484,17.3144531 C4.22607422,16.0839844 2.49462891,13.6582031 2.49462891,10.9248047 C2.49462891,6.70605469 6.72216797,3.3046875 11.9956055,3.3046875 Z M11.9956055,4.78125 C7.53076172,4.78125 3.97998047,7.54101563 3.97998047,10.9248047 C3.97998047,13.1308594 5.47412109,15.0556641 8.05810547,16.2597656 C8.58544922,16.5058594 8.65576172,16.9013672 8.41845703,17.3320313 C8.12841797,17.8857422 7.47802734,18.7382813 7.02099609,19.2919922 C6.96826172,19.3535156 7.00341797,19.40625 7.08251953,19.3798828 C7.82958984,19.0722656 9.31494141,18.1582031 10.3344727,17.4111328 C10.6508789,17.1650391 10.9233398,17.0507813 11.2749023,17.0507813 C11.5913086,17.0595703 11.8374023,17.0683594 11.9956055,17.0683594 C16.4604492,17.0683594 20.0200195,14.3085938 20.0200195,10.9248047 C20.0200195,7.54101563 16.4604492,4.78125 11.9956055,4.78125 Z"></path>
                </g>
            </g>
        </g>
    </g>
</svg>