<?xml version="1.0" encoding="UTF-8"?>
<svg width="24px" height="24px" viewBox="0 0 24 24" version="1.1" xmlns="http://www.w3.org/2000/svg" xmlns:xlink="http://www.w3.org/1999/xlink">
    <!-- Generator: Sketch 64 (93537) - https://sketch.com -->
    <title>web/mobile-icon</title>
    <desc>Created with Sketch.</desc>
    <g id="UI-style-guide" stroke="none" stroke-width="1" fill="none" fill-rule="evenodd">
        <g id="UI-Style-Guide-Copy" transform="translate(-547.000000, -3864.000000)" fill="#3DA9FC" fill-rule="nonzero">
            <g id="code-icon" transform="translate(547.000000, 3864.000000)">
                <g id="coding">
                    <g transform="translate(2.000000, 4.000000)">
                        <path d="M19.8676677,7.48345098 L15.2245304,2.56423529 C14.9391579,2.26156863 14.4628049,2.24776471 14.1601383,2.53337255 C13.8579422,2.8187451 13.843903,3.29533333 14.1295108,3.59776471 L18.285001,7.99996078 L14.1295108,12.4026667 C13.843903,12.705098 13.8579422,13.181451 14.1601383,13.4670588 C14.3057069,13.6043529 14.4916677,13.6723529 14.6769226,13.6723529 C14.8769618,13.6723529 15.0767265,13.5930588 15.2245697,13.4366667 L19.8677069,8.51721569 C20.1414716,8.22686275 20.1414716,7.77356863 19.8676677,7.48345098 Z" id="Path"></path>
                        <path d="M5.94376471,12.4024314 L1.78854902,7.99996078 L5.94376471,3.59752941 C6.22913725,3.29509804 6.21533333,2.81847059 5.91290196,2.53313725 C5.61070588,2.24776471 5.13384314,2.26156863 4.8485098,2.564 L0.205372549,7.48321569 C-0.0684313725,7.77333333 -0.0684313725,8.22686275 0.205372549,8.51701961 L4.8487451,13.4364706 C4.99682353,13.5933333 5.19635294,13.6723922 5.39639216,13.6723922 C5.58160784,13.6723922 5.76760784,13.6041176 5.91290196,13.4668235 C6.21560784,13.181451 6.22913725,12.7048627 5.94376471,12.4024314 Z" id="Path"></path>
                        <path d="M11.254648,0.0273333333 C10.8437853,-0.0349019608 10.4592755,0.247176471 10.3965304,0.658039216 L8.18790291,15.1145098 C8.12515781,15.5256078 8.40751075,15.9098824 8.81860879,15.9726275 C8.85727546,15.9783922 8.89539311,15.9811765 8.93331467,15.9811765 C9.29900095,15.9811765 9.61974605,15.7143922 9.67672644,15.3419216 L11.8853539,0.88545098 C11.948099,0.474313725 11.665746,0.0900784314 11.254648,0.0273333333 Z" id="Path"></path>
                    </g>
                </g>
            </g>
        </g>
    </g>
</svg>