<?xml version="1.0" encoding="UTF-8"?>
<svg width="24px" height="24px" viewBox="0 0 24 24" version="1.1" xmlns="http://www.w3.org/2000/svg" xmlns:xlink="http://www.w3.org/1999/xlink">
    <!-- Generator: Sketch 64 (93537) - https://sketch.com -->
    <title>prev-icon</title>
    <desc>Created with Sketch.</desc>
    <g id="UI-style-guide" stroke="none" stroke-width="1" fill="none" fill-rule="evenodd">
        <g id="UI-Style-Guide-Copy" transform="translate(-724.000000, -4065.000000)" fill="#5F6C7B" fill-rule="nonzero">
            <g id="prev-icon" transform="translate(724.000000, 4065.000000)">
                <g id="Path">
                    <g transform="translate(6.834717, 7.408691)">
                        <path d="M0.609375,10.5053711 C0.774414063,10.5053711 0.920410156,10.4418945 1.03466797,10.3276367 L5.76367188,5.70654297 C5.89697266,5.57958984 5.96044922,5.42724609 5.96044922,5.25585938 C5.96044922,5.08447266 5.890625,4.91943359 5.76367188,4.79882812 L1.03466797,0.177734375 C0.920410156,0.0634765625 0.774414063,0 0.609375,0 C0.266601562,0 0,0.266601562 0,0.603027344 C0,0.768066406 0.0698242188,0.920410156 0.177734375,1.03466797 L4.49414062,5.25585938 L0.177734375,9.47070312 C0.0698242188,9.58496094 0,9.73730469 0,9.90234375 C0,10.2451172 0.266601562,10.5053711 0.609375,10.5053711 Z" transform="translate(2.980225, 5.252686) scale(-1, 1) translate(-2.980225, -5.252686) "></path>
                        <path d="M5.96679688,10.5053711 C6.13818359,10.5053711 6.28417969,10.4418945 6.3984375,10.3276367 L11.1274414,5.70654297 C11.2543945,5.57958984 11.3242188,5.42724609 11.3242188,5.25585938 C11.3242188,5.08447266 11.2543945,4.91943359 11.1210938,4.79882812 L6.39208984,0.177734375 C6.27783203,0.0634765625 6.13818359,0 5.96679688,0 C5.63037109,0 5.36376953,0.266601562 5.36376953,0.603027344 C5.36376953,0.768066406 5.43359375,0.920410156 5.54150391,1.03466797 L9.85791016,5.25585938 L5.54150391,9.47070312 C5.43359375,9.58496094 5.36376953,9.73730469 5.36376953,9.90234375 C5.36376953,10.2451172 5.63037109,10.5053711 5.96679688,10.5053711 Z" transform="translate(8.343994, 5.252686) scale(-1, 1) translate(-8.343994, -5.252686) "></path>
                    </g>
                </g>
            </g>
        </g>
    </g>
</svg>