<?xml version="1.0" encoding="UTF-8"?>
<svg width="25px" height="24px" viewBox="0 0 25 24" version="1.1" xmlns="http://www.w3.org/2000/svg" xmlns:xlink="http://www.w3.org/1999/xlink">
    <!-- Generator: Sketch 64 (93537) - https://sketch.com -->
    <title>right-icon</title>
    <desc>Created with Sketch.</desc>
    <g id="UI-style-guide" stroke="none" stroke-width="1" fill="none" fill-rule="evenodd">
        <g id="UI-Style-Guide-Copy" transform="translate(-151.000000, -3930.000000)" fill="#5F6C7B" fill-rule="nonzero">
            <g id="right-icon" transform="translate(151.500000, 3930.000000)">
                <g>
                    <g>
                        <path d="M9.62280273,17.9140625 C9.79418945,17.9140625 9.93383789,17.8505859 10.0480957,17.7426758 L14.7770996,13.1152344 C14.9104004,12.9882812 14.9802246,12.8359375 14.9802246,12.6645508 C14.9802246,12.4931641 14.9104004,12.328125 14.7834473,12.2075195 L10.0544434,7.58642578 C9.94018555,7.47216797 9.79418945,7.40869141 9.62280273,7.40869141 C9.28637695,7.40869141 9.01977539,7.67529297 9.01977539,8.01171875 C9.01977539,8.17675781 9.08959961,8.32910156 9.19750977,8.44335938 L13.513916,12.6645508 L9.19750977,16.8793945 C9.08959961,16.9936523 9.01977539,17.1459961 9.01977539,17.3110352 C9.01977539,17.6538086 9.28637695,17.9140625 9.62280273,17.9140625 Z"></path>
                    </g>
                </g>
            </g>
        </g>
    </g>
</svg>