<?xml version="1.0" encoding="UTF-8"?>
<svg width="24px" height="24px" viewBox="0 0 24 24" version="1.1" xmlns="http://www.w3.org/2000/svg" xmlns:xlink="http://www.w3.org/1999/xlink">
    <!-- Generator: Sketch 64 (93537) - https://sketch.com -->
    <title>seo-icon</title>
    <desc>Created with Sketch.</desc>
    <g id="UI-style-guide" stroke="none" stroke-width="1" fill="none" fill-rule="evenodd">
        <g id="UI-Style-Guide-Copy" transform="translate(-467.000000, -3930.000000)" fill="#3DA9FC" fill-rule="nonzero">
            <g id="seo-icon" transform="translate(467.000000, 3930.000000)">
                <g>
                    <g>
                        <path d="M14.0874023,19.9248047 C13.9995117,20.7421875 13.1733398,21.2871094 12.0043945,21.2871094 C10.8178711,21.2871094 9.99169922,20.7421875 9.92138672,19.9248047 L9.92138672,19.9248047 Z M14.746582,17.6660156 C15.1772461,17.6660156 15.5288086,18.0175781 15.5288086,18.4570312 C15.5288086,18.8964844 15.1772461,19.2480469 14.746582,19.2480469 L14.746582,19.2480469 L9.25341797,19.2480469 C8.82275391,19.2480469 8.47119141,18.8964844 8.47119141,18.4570312 C8.47119141,18.0175781 8.82275391,17.6660156 9.25341797,17.6660156 L9.25341797,17.6660156 Z M12.0043945,1.88964844 C15.871582,1.88964844 18.4555664,4.44726562 18.4555664,8.27050781 C18.4555664,11.8916016 15.5288086,13.1748047 15.5288086,15.1875 L15.5288086,15.1875 L15.5288086,16.4970703 C15.5288086,16.7871094 15.3266602,16.9892578 15.027832,16.9892578 L15.027832,16.9892578 L8.97216797,16.9892578 C8.67333984,16.9892578 8.47998047,16.7871094 8.47998047,16.4970703 L8.47998047,16.4970703 L8.47998047,15.1875 C8.47998047,13.1748047 5.54443359,11.8916016 5.54443359,8.27050781 C5.54443359,4.44726562 8.13720703,1.88964844 12.0043945,1.88964844 Z M12.0043945,3.21679688 C8.92822266,3.21679688 6.87158203,5.23828125 6.87158203,8.27050781 C6.87158203,11.4257812 9.78955078,12.7177734 9.78955078,15.1875 L9.78955078,15.1875 L9.78955078,15.6708984 L14.2192383,15.6708984 L14.2192383,15.1875 C14.2192383,12.7177734 17.128418,11.4257812 17.128418,8.27050781 C17.128418,5.23828125 15.0805664,3.21679688 12.0043945,3.21679688 Z"></path>
                    </g>
                </g>
            </g>
        </g>
    </g>
</svg>