<?xml version="1.0" encoding="UTF-8"?>
<svg width="24px" height="24px" viewBox="0 0 24 24" version="1.1" xmlns="http://www.w3.org/2000/svg" xmlns:xlink="http://www.w3.org/1999/xlink">
    <!-- Generator: Sketch 64 (93537) - https://sketch.com -->
    <title>share-icon</title>
    <desc>Created with Sketch.</desc>
    <g id="UI-style-guide" stroke="none" stroke-width="1" fill="none" fill-rule="evenodd">
        <g id="UI-Style-Guide-Copy" transform="translate(-633.000000, -4066.000000)" fill="#5F6C7B" fill-rule="nonzero">
            <g id="share-icon" transform="translate(633.000000, 4066.000000)">
                <g>
                    <path d="M12.2763672,4.33300781 C12.6982422,4.33300781 12.9619141,4.53515625 13.4365234,4.93945312 L13.4365234,4.93945312 L20.0107422,11.0742188 C20.3271484,11.390625 20.4414062,11.7070312 20.4414062,11.9970703 C20.4414062,12.2783203 20.3183594,12.6035156 20.0107422,12.9111328 L20.0107422,12.9111328 L13.4365234,19.1074219 C13.0146484,19.4677734 12.6806641,19.6611328 12.2587891,19.6611328 C11.6699219,19.6611328 11.2392578,19.2216797 11.2392578,18.6416016 L11.2392578,18.6416016 L11.2392578,15.5214844 L11.0107422,15.5214844 C7.84667969,15.5214844 5.87792969,16.3652344 4.47167969,18.9931641 C4.17285156,19.546875 3.77734375,19.6523438 3.39941406,19.6523438 C2.90722656,19.6523438 2.48535156,19.1953125 2.48535156,18.3691406 C2.48535156,12.2607422 5.11328125,8.48144531 11.0107422,8.48144531 L11.0107422,8.48144531 L11.2392578,8.48144531 L11.2392578,5.39648438 C11.2392578,4.81640625 11.6699219,4.33300781 12.2763672,4.33300781 Z M12.7597656,6.17871094 C12.6894531,6.17871094 12.6367188,6.23144531 12.6367188,6.30175781 L12.6367188,6.30175781 L12.6367188,9.54492188 C12.6367188,9.73828125 12.5488281,9.81738281 12.3642578,9.81738281 L12.3642578,9.81738281 L11.265625,9.81738281 C5.67578125,9.81738281 3.90039062,13.640625 3.75097656,17.578125 C3.75097656,17.6396484 3.76855469,17.6660156 3.8125,17.6660156 C3.84765625,17.6660156 3.86523438,17.6396484 3.8828125,17.578125 C4.84082031,15.4863281 7.36328125,14.1767578 11.265625,14.1767578 L11.265625,14.1767578 L12.3642578,14.1767578 C12.5488281,14.1767578 12.6367188,14.2646484 12.6367188,14.4580078 L12.6367188,14.4580078 L12.6367188,17.6220703 C12.6367188,17.7011719 12.6894531,17.7539062 12.7597656,17.7539062 C12.8037109,17.7539062 12.8476562,17.7275391 12.9003906,17.6835938 L12.9003906,17.6835938 L18.7363281,12.1552734 C18.8066406,12.09375 18.8242188,12.0410156 18.8242188,11.9970703 C18.8242188,11.9443359 18.8066406,11.9003906 18.7363281,11.8388672 L18.7363281,11.8388672 L12.9003906,6.24902344 C12.8564453,6.20507812 12.8125,6.17871094 12.7597656,6.17871094 Z"></path>
                </g>
            </g>
        </g>
    </g>
</svg>