<?xml version="1.0" encoding="UTF-8"?>
<svg width="24px" height="24px" viewBox="0 0 24 24" version="1.1" xmlns="http://www.w3.org/2000/svg" xmlns:xlink="http://www.w3.org/1999/xlink">
    <!-- Generator: Sketch 64 (93537) - https://sketch.com -->
    <title>translation-icon</title>
    <desc>Created with Sketch.</desc>
    <g id="UI-style-guide" stroke="none" stroke-width="1" fill="none" fill-rule="evenodd">
        <g id="UI-Style-Guide-Copy" transform="translate(-632.000000, -3996.000000)" fill="#3DA9FC" fill-rule="nonzero">
            <g id="transaction-icon" transform="translate(632.000000, 3996.000000)">
                <g id="translation-icon">
                    <path d="M16.925293,3.06738281 C18.6567383,3.06738281 19.5444336,3.96386719 19.5444336,5.71289062 L19.5444336,5.71289062 L19.5444336,18.2988281 C19.5444336,20.0654297 18.6567383,20.953125 16.925293,20.953125 L16.925293,20.953125 L8.07470703,20.953125 C6.34326172,20.953125 5.45556641,20.0654297 5.45556641,18.2988281 L5.45556641,18.2988281 L5.45556641,5.71289062 C5.45556641,3.96386719 6.34326172,3.06738281 8.07470703,3.06738281 L8.07470703,3.06738281 Z M16.8286133,4.50878906 L8.17138672,4.50878906 C7.32763672,4.50878906 6.90576172,4.96582031 6.90576172,5.765625 L6.90576172,5.765625 L6.90576172,18.2548828 C6.90576172,19.0634766 7.32763672,19.5117188 8.17138672,19.5117188 L8.17138672,19.5117188 L16.8286133,19.5117188 C17.6635742,19.5117188 18.0942383,19.0634766 18.0942383,18.2548828 L18.0942383,18.2548828 L18.0942383,5.765625 C18.0942383,4.95703125 17.6635742,4.50878906 16.8286133,4.50878906 L16.8286133,4.50878906 Z M12.3637695,12.6826172 C12.6625977,12.6826172 12.8823242,12.9199219 12.8823242,13.2099609 C12.8823242,13.4912109 12.6625977,13.7197266 12.3637695,13.7197266 L12.3637695,13.7197266 L9.39306641,13.7197266 C9.08544922,13.7197266 8.86572266,13.4912109 8.86572266,13.2099609 C8.86572266,12.9199219 9.08544922,12.6826172 9.39306641,12.6826172 L9.39306641,12.6826172 Z M15.6157227,9.80859375 C15.9145508,9.80859375 16.1342773,10.0283203 16.1342773,10.3183594 C16.1342773,10.6083984 15.9145508,10.8369141 15.6157227,10.8369141 L15.6157227,10.8369141 L9.39306641,10.8369141 C9.08544922,10.8369141 8.86572266,10.6083984 8.86572266,10.3183594 C8.86572266,10.0283203 9.08544922,9.80859375 9.39306641,9.80859375 L9.39306641,9.80859375 Z M15.6157227,6.92578125 C15.9145508,6.92578125 16.1342773,7.15429688 16.1342773,7.43554688 C16.1342773,7.72558594 15.9145508,7.96289062 15.6157227,7.96289062 L15.6157227,7.96289062 L9.39306641,7.96289062 C9.08544922,7.96289062 8.86572266,7.72558594 8.86572266,7.43554688 C8.86572266,7.15429688 9.08544922,6.92578125 9.39306641,6.92578125 L9.39306641,6.92578125 Z"></path>
                </g>
            </g>
        </g>
    </g>
</svg>