<?xml version="1.0" encoding="UTF-8"?>
<svg width="24px" height="24px" viewBox="0 0 24 24" version="1.1" xmlns="http://www.w3.org/2000/svg" xmlns:xlink="http://www.w3.org/1999/xlink">
    <!-- Generator: Sketch 64 (93537) - https://sketch.com -->
    <title>twitter-icon</title>
    <desc>Created with Sketch.</desc>
    <g id="UI-style-guide" stroke="none" stroke-width="1" fill="none" fill-rule="evenodd">
        <g id="UI-Style-Guide-Copy" transform="translate(-814.000000, -3864.000000)" fill="#5F6C7B">
            <g id="twitter-icon" transform="translate(814.000000, 3864.000000)">
                <g>
                    <path d="M21.092758,5.944 C20.970358,5.812 20.774358,5.7784 20.614358,5.8624 C20.499958,5.9224 20.277558,6.0008 20.016758,6.0776 C20.329558,5.6672 20.583158,5.2008 20.691958,4.7832 C20.735158,4.6208 20.670358,4.4488 20.532758,4.3528 C20.392758,4.2576 20.209558,4.2592 20.073558,4.356 C19.838358,4.5232 18.751158,5.0048 18.049558,5.1608 C17.159158,4.36 16.272758,4 15.200758,4 C14.396758,4 13.651958,4.2296 12.786358,4.7432 C11.276758,5.6392 11.015158,7.576 11.127158,8.764 C7.02955805,8.3736 4.73115805,5.9896 3.91435805,4.952 C3.83275805,4.8488 3.70315805,4.7992 3.57195805,4.8008 C3.43995805,4.8104 3.32075805,4.884 3.25435805,4.9984 C2.27755805,6.6728 2.67755805,8.396 3.42795805,9.5552 C3.30475805,9.4712 3.17995805,9.3776 3.05515805,9.2744 C2.93515805,9.176 2.76955805,9.1536 2.62955805,9.2208 C2.48955805,9.2864 2.39995805,9.4272 2.39995805,9.5824 C2.39995805,11.34 3.42955805,12.596 4.43435805,13.3096 C4.33595805,13.2832 4.23035805,13.2528 4.11915805,13.2176 C3.96875805,13.172 3.80555805,13.216 3.70155805,13.3336 C3.59675805,13.4512 3.57035805,13.6192 3.63435805,13.7624 C4.27675805,15.2064 5.55435805,16.2832 6.98635805,16.6576 C5.75515805,17.4072 4.05275805,17.792 2.44635805,17.6024 C2.25915805,17.5776 2.07915805,17.6944 2.01995805,17.8752 C1.96075805,18.0552 2.03675805,18.2528 2.20155805,18.3472 C4.14875805,19.4592 6.17195805,20 8.38635805,20 L8.40075805,20 C11.425558,19.9976 14.266358,18.6816 16.399158,16.2944 C18.457558,13.9912 19.536758,11.0416 19.315958,8.356 C19.844758,7.9608 20.645558,7.2216 21.139158,6.428 C21.235158,6.2744 21.215958,6.076 21.092758,5.944 L21.092758,5.944 Z"></path>
                </g>
            </g>
        </g>
    </g>
</svg>