<?xml version="1.0" encoding="UTF-8"?>
<svg width="24px" height="24px" viewBox="0 0 24 24" version="1.1" xmlns="http://www.w3.org/2000/svg" xmlns:xlink="http://www.w3.org/1999/xlink">
    <!-- Generator: Sketch 64 (93537) - https://sketch.com -->
    <title>uncheck-icon</title>
    <desc>Created with Sketch.</desc>
    <g id="UI-style-guide" stroke="none" stroke-width="1" fill="none" fill-rule="evenodd" opacity="0.5">
        <g id="UI-Style-Guide-Copy" transform="translate(-546.000000, -4066.000000)" fill="#5F6C7B" fill-rule="nonzero">
            <g id="uncheck-icon" transform="translate(546.000000, 4066.000000)">
                <g>
                    <path d="M12.0019531,4.48046875 C16.6601562,4.48046875 20.5273438,8.33886719 20.5273438,12.9970703 C20.5273438,17.6640625 16.6689453,21.5224609 12.0107422,21.5224609 C7.35253906,21.5224609 3.48535156,17.6640625 3.48535156,12.9970703 C3.48535156,8.33886719 7.34375,4.48046875 12.0019531,4.48046875 Z M12.0019531,5.9921875 C8.1171875,5.9921875 5.01464844,9.11230469 5.01464844,12.9970703 C5.01464844,16.890625 8.12597656,20.0019531 12.0107422,20.0019531 C15.8955078,20.0019531 19.0244141,16.890625 19.0156435,12.9970703 C19.0068359,9.11230469 15.8867187,5.9921875 12.0019531,5.9921875 Z M15.2363281,9.15625 C15.6054688,9.15625 15.9570312,9.41113281 15.9570312,9.80664062 C15.9570312,9.99121094 15.8603516,10.1845703 15.7460938,10.3515625 L15.7460938,10.3515625 L11.6591797,16.7675781 C11.4833984,17.03125 11.2460938,17.171875 10.9648438,17.171875 C10.6748047,17.171875 10.4550781,17.0488281 10.2265625,16.7675781 L10.2265625,16.7675781 L7.91503906,13.9199219 C7.78320312,13.7529297 7.71289062,13.5683594 7.71289062,13.3837891 C7.71289062,12.9970703 8.01171875,12.6894531 8.38964844,12.6894531 C8.62695312,12.6894531 8.82910156,12.7861328 9.01367188,13.0322266 L9.01367188,13.0322266 L10.9296875,15.484375 L14.6386719,9.55175781 C14.796875,9.28808594 15.0078125,9.15625 15.2363281,9.15625 Z"></path>
                </g>
            </g>
        </g>
    </g>
</svg>