<?xml version="1.0" encoding="UTF-8"?>
<svg width="25px" height="24px" viewBox="0 0 25 24" version="1.1" xmlns="http://www.w3.org/2000/svg" xmlns:xlink="http://www.w3.org/1999/xlink">
    <!-- Generator: Sketch 64 (93537) - https://sketch.com -->
    <title>up-icon</title>
    <desc>Created with Sketch.</desc>
    <g id="UI-style-guide" stroke="none" stroke-width="1" fill="none" fill-rule="evenodd">
        <g id="UI-Style-Guide-Copy" transform="translate(-312.000000, -3930.000000)" fill="#5F6C7B" fill-rule="nonzero">
            <g id="up-icon" transform="translate(312.500000, 3930.000000)">
                <g>
                    <g transform="translate(12.000000, 12.000000) scale(-1, -1) rotate(-270.000000) translate(-12.000000, -12.000000) ">
                        <path d="M9.62280273,17.4140625 C9.79418945,17.4140625 9.93383789,17.3505859 10.0480957,17.2426758 L14.7770996,12.6152344 C14.9104004,12.4882812 14.9802246,12.3359375 14.9802246,12.1645508 C14.9802246,11.9931641 14.9104004,11.828125 14.7834473,11.7075195 L10.0544434,7.08642578 C9.94018555,6.97216797 9.79418945,6.90869141 9.62280273,6.90869141 C9.28637695,6.90869141 9.01977539,7.17529297 9.01977539,7.51171875 C9.01977539,7.67675781 9.08959961,7.82910156 9.19750977,7.94335938 L13.513916,12.1645508 L9.19750977,16.3793945 C9.08959961,16.4936523 9.01977539,16.6459961 9.01977539,16.8110352 C9.01977539,17.1538086 9.28637695,17.4140625 9.62280273,17.4140625 Z"></path>
                    </g>
                </g>
            </g>
        </g>
    </g>
</svg>