<?xml version="1.0" encoding="UTF-8"?>
<svg width="24px" height="24px" viewBox="0 0 24 24" version="1.1" xmlns="http://www.w3.org/2000/svg" xmlns:xlink="http://www.w3.org/1999/xlink">
    <!-- Generator: Sketch 64 (93537) - https://sketch.com -->
    <title>video-icon</title>
    <desc>Created with Sketch.</desc>
    <g id="UI-style-guide" stroke="none" stroke-width="1" fill="none" fill-rule="evenodd">
        <g id="UI-Style-Guide-Copy" transform="translate(-546.000000, -3930.000000)" fill="#3DA9FC" fill-rule="nonzero">
            <g id="video-icon" transform="translate(546.000000, 3930.000000)">
                <g>
                    <g>
                        <path d="M14.7807617,4.1328125 C16.8461914,4.1328125 18.059082,5.31933594 18.059082,7.3671875 L18.059082,7.3671875 L18.059082,8.47460938 L21.152832,5.85546875 C21.5043945,5.56542969 21.8911133,5.36328125 22.2514648,5.36328125 C22.980957,5.36328125 23.4819336,5.90820312 23.4819336,6.69921875 L23.4819336,6.69921875 L23.4819336,15.3212891 C23.4819336,16.1123047 22.980957,16.6572266 22.2514648,16.6572266 C21.8911133,16.6572266 21.5043945,16.4550781 21.152832,16.1650391 L21.152832,16.1650391 L18.059082,13.5458984 L18.059082,14.6357422 C18.059082,16.6835938 16.8461914,17.8789062 14.7807617,17.8789062 L14.7807617,17.8789062 L6.10595703,17.8789062 C4.04052734,17.8789062 2.81884766,16.7011719 2.81884766,14.6533203 L2.81884766,14.6533203 L2.81884766,7.3671875 C2.81884766,5.31933594 4.12841797,4.1328125 6.10595703,4.1328125 L6.10595703,4.1328125 Z M14.534668,5.45996094 L6.35205078,5.45996094 C5.01611328,5.45996094 4.25146484,6.16308594 4.25146484,7.578125 L4.25146484,7.578125 L4.25146484,14.4248047 C4.25146484,15.8398438 5.01611328,16.5429688 6.35205078,16.5429688 L6.35205078,16.5429688 L14.534668,16.5429688 C15.8706055,16.5429688 16.6352539,15.8398438 16.6352539,14.4248047 L16.6352539,14.4248047 L16.6352539,7.578125 C16.6352539,6.16308594 15.8706055,5.45996094 14.534668,5.45996094 L14.534668,5.45996094 Z M21.9790039,6.97167969 C21.9086914,6.97167969 21.855957,7.00683594 21.7768555,7.06835938 L21.7768555,7.06835938 L18.059082,10.1269531 L18.059082,11.8935547 L21.7768555,14.9521484 C21.855957,15.0048828 21.9086914,15.0488281 21.9790039,15.0488281 C22.0756836,15.0488281 22.1196289,14.9697266 22.1196289,14.8554688 L22.1196289,14.8554688 L22.1196289,7.16503906 C22.1196289,7.05078125 22.0756836,6.97167969 21.9790039,6.97167969 Z"></path>
                    </g>
                </g>
            </g>
        </g>
    </g>
</svg>